<svg width="44" height="44" viewBox="0 0 44 44" fill="none" xmlns="http://www.w3.org/2000/svg">
<path d="M8.90076 10.7954C8.90076 9.78285 9.72157 8.96204 10.7341 8.96204H33.169C34.1816 8.96204 35.0024 9.78285 35.0024 10.7954V33.2145C35.0024 34.227 34.1816 35.0478 33.169 35.0478H10.7341C9.72157 35.0478 8.90076 34.227 8.90076 33.2145V10.7954Z" fill="url(#paint0_linear)"/>
<mask id="mask0" mask-type="alpha" maskUnits="userSpaceOnUse" x="8" y="8" width="28" height="28">
<path d="M8.90076 10.7954C8.90076 9.78285 9.72157 8.96204 10.7341 8.96204H33.169C34.1816 8.96204 35.0024 9.78285 35.0024 10.7954V33.2145C35.0024 34.227 34.1816 35.0478 33.169 35.0478H10.7341C9.72157 35.0478 8.90076 34.227 8.90076 33.2145V10.7954Z" fill="url(#paint1_linear)"/>
</mask>
<g mask="url(#mask0)">
<path d="M20.1503 15.532C20.1503 17.5571 18.5087 19.1987 16.4837 19.1987C14.4586 19.1987 12.817 17.5571 12.817 15.532C12.817 13.507 14.4586 11.8654 16.4837 11.8654C18.5087 11.8654 20.1503 13.507 20.1503 15.532Z" fill="white"/>
<path d="M13.0871 24.6264C13.8052 23.8973 14.9812 23.8973 15.6993 24.6264L32.4419 41.6234C33.5835 42.7822 32.7625 44.7432 31.1358 44.7432H-2.3494C-3.97607 44.7432 -4.79703 42.7822 -3.6555 41.6234L13.0871 24.6264Z" fill="url(#paint2_linear)"/>
<mask id="mask1" mask-type="alpha" maskUnits="userSpaceOnUse" x="-5" y="24" width="38" height="21">
<path d="M13.0871 24.6264C13.8052 23.8973 14.9812 23.8973 15.6993 24.6264L32.4419 41.6234C33.5835 42.7822 32.7625 44.7432 31.1358 44.7432H-2.3494C-3.97607 44.7432 -4.79703 42.7822 -3.6555 41.6234L13.0871 24.6264Z" fill="url(#paint3_linear)"/>
</mask>
<g mask="url(#mask1)">
<g filter="url(#filter0_f)">
<path d="M23.3883 18.5738C24.1064 17.8447 25.2823 17.8447 26.0005 18.5738L42.7431 35.5707C43.8846 36.7296 43.0636 38.6906 41.437 38.6906H7.95175C6.32508 38.6906 5.50412 36.7296 6.64565 35.5707L23.3883 18.5738Z" fill="#23542F"/>
</g>
</g>
<g filter="url(#filter1_f)">
<path d="M23.388 18.5738C24.1061 17.8447 25.2821 17.8447 26.0002 18.5738L42.7428 35.5707C43.8844 36.7296 43.0634 38.6906 41.4367 38.6906H7.95151C6.32484 38.6906 5.50388 36.7296 6.6454 35.5707L23.388 18.5738Z" fill="#3F9755" fill-opacity="0.8"/>
</g>
<path d="M25.3099 18.3888C26.028 17.6598 27.204 17.6598 27.9221 18.3888L44.6647 35.3858C45.8062 36.5447 44.9853 38.5057 43.3586 38.5057H9.87338C8.24671 38.5057 7.42575 36.5447 8.56728 35.3858L25.3099 18.3888Z" fill="url(#paint4_linear)"/>
</g>
<defs>
<filter id="filter0_f" x="2.11475" y="14.027" width="45.1592" height="28.6636" filterUnits="userSpaceOnUse" color-interpolation-filters="sRGB">
<feFlood flood-opacity="0" result="BackgroundImageFix"/>
<feBlend mode="normal" in="SourceGraphic" in2="BackgroundImageFix" result="shape"/>
<feGaussianBlur stdDeviation="2" result="effect1_foregroundBlur"/>
</filter>
<filter id="filter1_f" x="2.1145" y="14.027" width="45.1592" height="28.6636" filterUnits="userSpaceOnUse" color-interpolation-filters="sRGB">
<feFlood flood-opacity="0" result="BackgroundImageFix"/>
<feBlend mode="normal" in="SourceGraphic" in2="BackgroundImageFix" result="shape"/>
<feGaussianBlur stdDeviation="2" result="effect1_foregroundBlur"/>
</filter>
<linearGradient id="paint0_linear" x1="8.90076" y1="8.96204" x2="34.9865" y2="35.0637" gradientUnits="userSpaceOnUse">
<stop offset="0.0001" stop-color="#DAF1E0"/>
<stop offset="1" stop-color="#91D4A2"/>
</linearGradient>
<linearGradient id="paint1_linear" x1="8.90076" y1="8.96204" x2="34.9865" y2="35.0637" gradientUnits="userSpaceOnUse">
<stop offset="0.0001" stop-color="#DAF1E0"/>
<stop offset="1" stop-color="#91D4A2"/>
</linearGradient>
<linearGradient id="paint2_linear" x1="-9.99636" y1="23.3004" x2="14.9489" y2="65.8603" gradientUnits="userSpaceOnUse">
<stop stop-color="#4FBA6A"/>
<stop offset="1" stop-color="#1D4927"/>
</linearGradient>
<linearGradient id="paint3_linear" x1="12.8097" y1="23.9319" x2="23.3819" y2="35.0956" gradientUnits="userSpaceOnUse">
<stop stop-color="#4FBA6A"/>
<stop offset="1" stop-color="#1D4927"/>
</linearGradient>
<linearGradient id="paint4_linear" x1="20.9421" y1="20.3831" x2="35.8024" y2="35.0955" gradientUnits="userSpaceOnUse">
<stop stop-color="#97C93D"/>
<stop offset="1" stop-color="#4FBA69"/>
</linearGradient>
</defs>
</svg>
